<?xml version="1.0" encoding="utf-8"?>
<!-- Generator: Adobe Illustrator 25.2.1, SVG Export Plug-In . SVG Version: 6.00 Build 0)  -->
<svg version="1.1" id="Bold" xmlns="http://www.w3.org/2000/svg" xmlns:xlink="http://www.w3.org/1999/xlink" x="0px" y="0px"
	 viewBox="0 0 512 512" style="enable-background:new 0 0 512 512;" xml:space="preserve">
<style type="text/css">
	.st0{stroke:#000000;stroke-miterlimit:10;}
</style>
<path class="st0" d="M506,111.4c0.9,1.5,0.7,3.8-0.2,5.2c-6.2,10.3-12.7,20.6-19.1,30.8c-43.1,69-86.2,137.9-129.4,206.9
	c-0.2,0.4-0.5,0.8-0.8,1.3c-4.9,7.7-5.3,7.9-15,4.2c-32.9-12.6-65.9-25.3-98.9-38c-3-1.2-6-2.2-9.3-3.4
	c-11.9,8.3-23.7,16.6-35.5,24.8c-16.5,11.5-33.1,23.1-49.6,34.7c-1.4,1-2.7,2-4.1,2.8c-5.9,3.5-10.2,2.5-12-3.2
	c-5-15.2-9.8-30.4-14.6-45.6c-5.7-17.8-11.5-35.5-16.8-53.3c-1.4-4.6-4.2-7.2-9.9-9c-25-7.9-49.9-16.2-74.8-24.4
	c-2.3-0.7-4.7-1.3-6.6-2.4C7.7,241.9,6,240.3,6,239c0-1.2,2-2.8,3.5-3.6c2-1,4.6-1.3,6.8-1.8c124.7-31.7,249.4-63.5,374-95.2
	c34.4-8.7,68.7-17.5,103.1-26.2c2-0.5,4.1-1,6-1.5C501.9,109.9,504.7,109.4,506,111.4z M492.9,121.4c1.2-1.8,0.9-2-1.7-1.2
	c-154.9,39.5-309.8,79.1-464.6,118.7c-1.7,0.4-1.5,1-0.6,1.5c1.8,0.7,3.6,1.5,5.5,2.1c21.5,7.1,43.2,14,64.6,21.3
	c6.2,2.1,11.3,1.7,17.2-0.5c63.9-23.1,127.9-46.1,191.9-69.1c30.3-10.9,60.7-21.8,91.1-32.7c3.1-1.2,6.6-3.3,9.7,0
	c2.3,2.4,0.7,5.9-3.5,8.5c-1.4,0.9-2.9,1.7-4.4,2.5c-66.9,38.4-133.7,76.8-200.6,115.3c-2.6,1.5-5.2,3.1-8.7,5.2
	c53.4,20.5,105.6,40.5,158.5,60.9C396.1,276.1,444.5,198.7,492.9,121.4z M358.8,186.3c2.8-1.6,5.6-3.4,8.4-5.1
	c-86.8,29.9-172.9,60.8-259.2,91.9c9.9,31.2,28.3,92.5,30,93.6c0.6,0.2,3.3-5.4,4.3-7.4c10.1-20.1,20.4-40.2,30.2-60.4
	c2.7-5.5,6.7-9.7,12.9-13.2C243.4,252.7,301.1,219.5,358.8,186.3z M224.2,314.8c-14.5-5.6-27.5-10.6-41.5-15.9
	c-11.4,22.6-22.4,44.4-33.4,66.4c-0.4,0.7,0.5,1.5,1.6,0.9C168.7,353.7,192.6,337,224.2,314.8z"/>
</svg>
