<svg xmlns="http://www.w3.org/2000/svg" viewBox="0 0 2000 2000"><defs><style>.cls-1{fill:#fff;}.cls-2{fill:#27354c;}</style></defs><g id="BACKGROUND"><rect class="cls-1" width="2000" height="2000"/></g><g id="OBJECTS"><path class="cls-2" d="M1182.94,880.39a4.74,4.74,0,0,1-.12,3.76c-3.66,7.42-7.53,14.75-11.33,22.09q-38.41,74.16-76.85,148.31a10,10,0,0,1-.49.9c-2.91,5.55-3.17,5.66-8.92,3l-58.74-27.23c-1.77-.82-3.55-1.59-5.55-2.47q-10.63,8.94-21.07,17.77-14.75,12.4-29.44,24.89c-.82.68-1.6,1.4-2.45,2-3.51,2.5-6,1.79-7.14-2.28-3-10.87-5.82-21.81-8.69-32.72-3.37-12.74-6.8-25.43-10-38.21-.82-3.32-2.5-5.16-5.9-6.45-14.85-5.69-29.62-11.62-44.41-17.5a17.94,17.94,0,0,1-3.92-1.7c-.87-.63-1.89-1.81-1.86-2.75s1.16-2,2.09-2.55a19,19,0,0,1,4.07-1.32q111-34.11,222.1-68.23l61.21-18.79c1.19-.36,2.41-.69,3.57-1.1C1180.56,879.32,1182.21,878.93,1182.94,880.39Zm-7.73,7.14c.69-1.27.52-1.43-1-.85q-138,42.52-275.9,85.07c-1,.3-.9.71-.38,1.1,1,.47,2.13,1,3.26,1.51,12.78,5.08,25.63,10,38.33,15.3,3.69,1.51,6.69,1.21,10.23-.33q56.94-24.89,114-49.55,27-11.7,54.09-23.43c1.86-.83,3.92-2.34,5.75,0,1.34,1.7.44,4.2-2.06,6.13-.84.66-1.74,1.21-2.59,1.81l-119.1,82.63c-1.57,1.07-3.08,2.22-5.17,3.76,31.71,14.7,62.69,29.07,94.13,43.68Q1132.2,970.53,1175.21,887.53Zm-79.64,46.56c1.69-1.18,3.35-2.42,5-3.62C1049,951.92,997.89,974,946.68,996.33c5.9,22.39,16.8,66.34,17.82,67.11.35.17,2-3.9,2.53-5.3,6-14.42,12.09-28.82,18-43.29a20.15,20.15,0,0,1,7.67-9.48Q1044.19,969.85,1095.57,934.09Zm-79.92,92.11c-8.63-4-16.33-7.58-24.62-11.4-6.74,16.18-13.31,31.86-19.85,47.57-.23.5.32,1.07,1,.64C982.66,1054.11,996.84,1042.1,1015.65,1026.2Z"/></g></svg>